<mxfile host="app.diagrams.net" modified="2023-08-29T02:38:08.891Z" agent="Mozilla/5.0 (Windows NT 10.0; Win64; x64) AppleWebKit/537.36 (KHTML, like Gecko) Chrome/116.0.0.0 Safari/537.36" etag="ZCwy5nN-xVAtP9mnYAQh" version="21.6.9" type="github">
  <diagram name="Page-1" id="HAc7c_DLRv0LSlmPekfo">
    <mxGraphModel dx="954" dy="610" grid="1" gridSize="10" guides="1" tooltips="1" connect="1" arrows="1" fold="1" page="1" pageScale="1" pageWidth="850" pageHeight="1100" math="0" shadow="0">
      <root>
        <mxCell id="0" />
        <mxCell id="1" parent="0" />
        <mxCell id="vKHNrvgYBwX0vUxO5ZxM-9" value="Actor" style="shape=umlActor;verticalLabelPosition=bottom;verticalAlign=top;html=1;outlineConnect=0;" vertex="1" parent="1">
          <mxGeometry x="150" y="260" width="50" height="100" as="geometry" />
        </mxCell>
        <mxCell id="vKHNrvgYBwX0vUxO5ZxM-10" value="&lt;h5 style=&quot;font-size: 15px;&quot;&gt;GAME TEBAK ANGKA&lt;/h5&gt;" style="rounded=0;whiteSpace=wrap;html=1;fontFamily=Courier New;fontSize=15;spacingTop=-400;" vertex="1" parent="1">
          <mxGeometry x="240" y="80" width="360" height="480" as="geometry" />
        </mxCell>
        <mxCell id="vKHNrvgYBwX0vUxO5ZxM-11" value="MENEBAK ANGKA" style="ellipse;whiteSpace=wrap;html=1;" vertex="1" parent="1">
          <mxGeometry x="360" y="150" width="120" height="80" as="geometry" />
        </mxCell>
        <mxCell id="vKHNrvgYBwX0vUxO5ZxM-12" value="CEK ANGKA" style="ellipse;whiteSpace=wrap;html=1;" vertex="1" parent="1">
          <mxGeometry x="360" y="280" width="120" height="80" as="geometry" />
        </mxCell>
        <mxCell id="vKHNrvgYBwX0vUxO5ZxM-14" value="MENEBAK ANGKA" style="ellipse;whiteSpace=wrap;html=1;" vertex="1" parent="1">
          <mxGeometry x="360" y="400" width="120" height="80" as="geometry" />
        </mxCell>
        <mxCell id="vKHNrvgYBwX0vUxO5ZxM-20" value="" style="endArrow=none;html=1;rounded=0;exitX=1;exitY=0.5;exitDx=0;exitDy=0;" edge="1" parent="1" source="vKHNrvgYBwX0vUxO5ZxM-14">
          <mxGeometry width="50" height="50" relative="1" as="geometry">
            <mxPoint x="400" y="340" as="sourcePoint" />
            <mxPoint x="670" y="320" as="targetPoint" />
            <Array as="points">
              <mxPoint x="570" y="440" />
            </Array>
          </mxGeometry>
        </mxCell>
        <mxCell id="vKHNrvgYBwX0vUxO5ZxM-22" value="" style="endArrow=none;html=1;rounded=0;" edge="1" parent="1">
          <mxGeometry width="50" height="50" relative="1" as="geometry">
            <mxPoint x="210" y="300" as="sourcePoint" />
            <mxPoint x="360" y="310" as="targetPoint" />
            <Array as="points">
              <mxPoint x="320" y="300" />
            </Array>
          </mxGeometry>
        </mxCell>
        <mxCell id="vKHNrvgYBwX0vUxO5ZxM-23" value="" style="endArrow=none;html=1;rounded=0;entryX=0;entryY=0.5;entryDx=0;entryDy=0;" edge="1" parent="1" target="vKHNrvgYBwX0vUxO5ZxM-11">
          <mxGeometry width="50" height="50" relative="1" as="geometry">
            <mxPoint x="210" y="280" as="sourcePoint" />
            <mxPoint x="450" y="290" as="targetPoint" />
            <Array as="points">
              <mxPoint x="300" y="210" />
            </Array>
          </mxGeometry>
        </mxCell>
        <mxCell id="vKHNrvgYBwX0vUxO5ZxM-24" value="pemain&lt;br&gt;" style="text;html=1;align=center;verticalAlign=middle;resizable=0;points=[];autosize=1;strokeColor=none;fillColor=none;" vertex="1" parent="1">
          <mxGeometry x="665" y="220" width="60" height="30" as="geometry" />
        </mxCell>
        <mxCell id="vKHNrvgYBwX0vUxO5ZxM-25" value="komputer&lt;br&gt;" style="text;html=1;align=center;verticalAlign=middle;resizable=0;points=[];autosize=1;strokeColor=none;fillColor=none;" vertex="1" parent="1">
          <mxGeometry x="140" y="220" width="70" height="30" as="geometry" />
        </mxCell>
        <mxCell id="vKHNrvgYBwX0vUxO5ZxM-8" value="Actor" style="shape=umlActor;verticalLabelPosition=bottom;verticalAlign=top;html=1;outlineConnect=0;fontFamily=Verdana;" vertex="1" parent="1">
          <mxGeometry x="670" y="260" width="50" height="100" as="geometry" />
        </mxCell>
      </root>
    </mxGraphModel>
  </diagram>
</mxfile>
